<svg width="1015" height="760" viewBox="0 0 1015 760" fill="none" xmlns="http://www.w3.org/2000/svg">
<path d="M804 34C809.748 41.8232 815.125 49.4695 824 54C821.761 54.6821 814.233 55.0713 814.921 58.7909C815.321 60.9496 818.38 60.8804 820.005 60.9954C826.461 61.4521 830.301 64.4792 836 67L837 63C840.669 65.1415 846.67 66.8821 848.397 71.1049C850.123 75.3269 847.266 88.9993 854.11 90.0787C857.088 90.5485 858.818 85.99 860.529 84.3125C863.034 81.855 866.947 80.6902 870 79L871 80C869.961 86.382 875.47 89.1025 876.421 95C877.295 100.415 872.695 104.353 870.973 109C868.87 114.676 873.217 125.176 863.044 125.168C861.732 125.167 860.194 124.406 859 124C856.944 132.245 852.616 140.693 846.896 147C842.48 151.869 835.384 155.301 834 162C853.471 159.593 879.791 162.473 886.51 138C887.484 134.453 888.121 130.684 887.907 127C887.662 122.8 886.598 118.669 884.532 115C882.187 110.834 878.043 106.127 878.464 101C878.906 95.609 884.571 92.535 887.891 88.9606C892.99 83.4712 894.058 75.948 891.438 69C887.271 57.9542 874.572 55.7986 869.537 45.9962C865.895 38.9069 871.647 34.0427 871.953 27C872.495 14.5303 859.383 7.15469 849 3.74929C839.13 0.512068 827.231 -0.180312 817 1.61498C811.321 2.61139 805.601 5.40629 800 6.04089C796.735 6.41089 793.3 5.10059 790 5.01459C777.652 4.69309 762.071 5.38889 752.04 13.5293C742.121 21.5787 745.779 34.7471 740.2 45C735.14 54.2988 724.321 59.5868 720.992 70C717.709 80.2711 726.802 89.1282 724.525 99C720.953 114.493 703.969 124.509 708.558 142C713.194 159.672 740.993 162.618 756 162.985C761.57 163.122 770.181 163.85 773.86 158.606C779.204 150.989 773.623 141.393 771.079 134C765.986 119.198 762.247 102.728 764.289 87C765.942 74.2735 769.864 60.8773 780.004 52.3256C787.696 45.8386 799.078 43.2852 804 34Z" fill="#E5BB70"/>
<path d="M804 34C797.042 42.9374 786.155 45.687 778.04 53.1844C765.758 64.5319 764 83.3303 764 99C768.404 98.456 771.957 98.022 775.985 100.367C789.242 108.084 782.78 124.579 769 126C770.043 133.739 774.525 140.416 775.657 148C776.514 153.745 771.474 164.35 776.603 169.066C779.233 171.484 784.612 172.216 788 173L775 158C804.677 170.172 844.892 165.43 856.484 131C858.36 125.427 859.718 119.878 860 114H864C864.568 110.464 865.801 108.309 869 111C877.627 102.508 879.638 83.3683 862.924 83.4036C858.99 83.4119 856.363 91.8765 852.637 88.5339C847.339 83.7815 850.828 75.8005 848.397 70.213C846.7 66.3137 840.633 64.5124 837 63L836 67C832.796 64.9161 829.791 62.4532 826 61.5332C823.196 60.8527 818.825 61.8499 816.466 59.9877C811.963 56.4334 822.29 55.0413 824 55L813.171 44.9606L804 34Z" fill="#C88C74"/>
<path d="M773 67C776.444 65.475 779.383 62.7798 783 61.6528C786.824 60.4614 791.07 60.9357 795 60C791.609 49.265 771.242 56.1465 773 67Z" fill="#E5BB70"/>
<path d="M805 74C805.001 81.8747 811.067 96.805 802 100C805.461 101.335 809.386 100.24 809.762 95.956C810.279 90.0532 807.411 79.3701 805 74Z" fill="#1B182E"/>
<path d="M828 76C823.418 76.9055 819.375 77.7728 818.348 83.0046C817.893 85.3198 818.253 94.115 822.737 91.8241C825.977 90.1687 824.672 84.9053 825.299 82.0409C825.771 79.8807 827.054 77.9705 828 76Z" fill="#1B182E"/>
<path d="M782 77C783.603 80.7839 782.7 88.6893 785.585 91.338C787.772 93.346 789.773 91.0446 790.427 88.9406C792.592 81.9712 788.781 77.2208 782 77Z" fill="#1B182E"/>
<path d="M764 99C764.026 108.374 766.767 116.85 768 126C772.503 125.894 776.465 125.147 779.775 121.786C787.24 114.209 783.625 102.417 773.999 98.971C770.614 97.759 767.424 98.367 764 99Z" fill="#C48168"/>
<path d="M836 98.537C818.432 102.57 824.736 129.574 842 125.466C859.575 121.284 853.04 94.625 836 98.537Z" fill="#C48168"/>
<path d="M793 114C799.254 121.271 809.763 121.256 816 114C812.121 115.109 808.124 117.694 804 117.486C800.223 117.296 796.601 115.029 793 114Z" fill="#1B182E"/>
<path d="M802 117C803.769 117.779 805.036 117.912 807 118C805.231 117.221 803.964 117.088 802 117Z" fill="#654A4C"/>
<path d="M802 125C803.769 125.779 805.036 125.912 807 126C805.231 125.221 803.964 125.088 802 125Z" fill="#372B39"/>
<path d="M775 158C782.673 173.031 802.069 179.621 818 173.171C824.457 170.557 830.077 164.569 834 159C821.061 160.911 809.478 165.177 796 163.829C788.545 163.084 782.074 160.022 775 158Z" fill="#C48168"/>
<path d="M764 163C764.007 172.805 766.19 182.393 768 192C765.315 192.564 761.705 192.95 760.028 195.43C758.472 197.73 758.974 201.372 759.004 204C759.103 212.661 761.252 221.541 763.003 230C769.331 260.561 776.49 291.362 786.333 321C788.812 328.464 791.395 335.806 794.59 343C795.977 346.123 797.542 350.259 800.375 352.377C804.559 355.507 807.327 350.178 808.89 346.999C813.373 337.882 816.355 327.713 819.28 318C827.574 290.464 834.075 262.172 839.801 234C842.467 220.882 846.722 207.446 847 194L841 193C842.268 189.034 843.418 185.06 844.349 181C845.254 177.05 849.276 166.259 845.397 163.179C843.266 161.487 837.77 161.375 835.599 163.027C833.655 164.506 833.708 167.364 831.683 168.914C824.015 174.783 811.131 175.015 802 175C794.99 174.989 779.328 174.251 775.028 167.606C773.638 165.459 774.009 162.431 774 160C770.604 161.206 767.614 162.61 764 163Z" fill="#123C67"/>
<path d="M833 160C828.596 164.403 824.425 168.864 819 172C826.221 174.562 836.309 168.114 833 160Z" fill="#C88C74"/>
<path d="M525 188C525.357 195.788 529.219 202.831 532 210C526.982 203.489 522.695 195.589 515 192C515.366 200.012 519.47 206.571 522 214C516.892 208.892 511.994 202.378 505 200C505.689 207.835 510.319 214.861 515 221C510.081 217.76 505.94 214.072 500 213C504.008 225.085 517.441 234.141 527 241.8C529.895 244.12 534.023 248.828 538 248.876C541.857 248.922 546.534 244.76 550 243.178C553.26 241.691 558.89 240.715 560.972 237.581C562.672 235.023 562 230.908 562 228C562 219.242 561.863 201.692 551 200C551.269 206.262 551.627 210.851 550 217C538.379 211.099 536.857 193.65 525 188Z" fill="#C88C74"/>
<path d="M850 195C849.892 208.017 845.385 221.285 842.801 234C836.92 262.934 829.864 291.663 821.576 320C818.716 329.776 815.525 340.006 810.676 349C809.175 351.783 806.697 356.515 802.986 356.515C799.163 356.515 796.347 351.833 794.63 349C789.444 340.44 786.478 330.435 783.333 321C775.05 296.15 769.125 270.523 763.349 245C759.743 229.061 754.751 212.399 756 196C748.507 196.654 741.057 199.811 734 202.309C724.231 205.766 712.885 209.036 705.184 216.326C699.442 221.762 695.66 229.465 691.333 236C681.787 250.415 672.769 265.222 663.797 280C655.059 294.393 642.959 309.256 637 325C624.319 311.75 612.842 297.071 601.08 283C592.121 272.282 583.096 261.603 574.001 251C571.165 247.694 567.952 241 563.816 239.328C561.64 238.448 559.088 239.378 557 240.079C551.355 241.975 542.058 244.909 538.694 250.185C535.467 255.246 541.256 266.041 543.203 271C550.927 290.673 559.188 310.573 569.576 329C581.864 350.798 594.305 374.233 614 390.384C621.195 396.285 631.091 403.564 641 402.775C647.839 402.231 654.565 397.083 660 393.279C675.174 382.657 688.229 368.556 699.576 354C704.1 348.196 709.619 341.889 712.387 335C713.949 331.112 713.791 327.077 714.286 323C715.296 314.66 716.339 306.371 717 298C718.961 302.647 718.999 307.018 719 312C722.763 307.459 724.064 301.359 728 297C726.252 305.355 720.67 311.184 718.133 319C712.627 335.962 714.982 351.696 716.834 369C717.73 377.369 719.031 390.808 726.329 396.397C729.252 398.636 733.546 398 737 398H872C874.913 398 879.018 398.668 881.582 396.972C884.059 395.334 884.974 391.611 885.997 389C888.857 381.703 889.999 374.797 890 367C897.973 382.132 901.957 400.689 907.026 417C913.585 438.107 921.74 458.759 927.86 480C935.6 506.871 945.16 533.471 954 560C955.97 565.896 958.52 571.887 959.69 578C960.42 581.818 960.31 587.34 963.09 590.397C964.79 592.266 967.7 592.025 970 591.985C975.6 591.885 986.79 592.569 991.57 589.566C994.08 587.993 994.44 584.662 994.92 582C996.05 575.65 996 569.427 996 563C996 536.261 995.83 509.584 993.17 483C990.73 458.589 988.06 433.866 982.1 410C970.65 364.094 952.25 320.276 933.42 277C927.1 262.469 920.33 248.173 913.247 234C910.069 227.644 907.386 219.694 902.471 214.465C896.692 208.317 887.82 204.95 880 202.333C870.35 199.104 860.194 195.811 850 195Z" fill="#123C67"/>
<path d="M110 346L108 344C104.685 346.268 103.313 347.934 103 352C103.924 350.352 104.449 348.825 105 347L109 348C106.695 351.653 104.198 355.007 99.9959 356.576C96.9379 357.717 91.9739 357.112 89.6189 359.603C87.1189 362.246 89.2709 366.037 92.1089 367.258C95.9579 368.914 101.1 367.928 105 367C101.631 375.092 98.0059 381.014 97.9999 390C103.65 390.004 107.727 391.128 113 393C113.747 387.091 114.648 380.965 113.79 375C113.209 370.957 110.651 367.161 110.88 363C111.135 358.34 114.3 353.617 115.335 349C116.129 345.457 115.911 340.481 118.013 337.415C120.006 334.509 124.348 333.15 126.985 330.812C131.109 327.156 133.185 323.442 139 323C137.774 320.965 137.297 320.674 135 320L136 316C142.963 320.596 151.502 320.396 153 311C154.036 314.506 153.345 318.561 154.742 321.906C157.842 329.324 167.016 328.181 173 326C167.142 331.641 168.629 339.296 177 341C175.86 345.789 175.357 351.204 176.8 356C177.818 359.385 180.619 362.388 180.729 366C180.834 369.443 178.66 372.618 178.214 376C177.594 380.699 178.66 386.509 180 391C184.7 390.127 189.231 390 194 390C193.566 381.637 188.151 374.568 185 367C187.314 367.429 201.059 368.859 196.914 362.573C195.889 361.02 193.599 360.783 191.995 360.219C186.334 358.228 177.52 351.389 186 347L187 351C188.282 347.078 185.134 346.497 183.403 343.448C182.279 341.469 182.791 339.141 183 337L188 338C191.139 331.366 194.898 321.727 189.566 315.105C186.867 311.753 182.441 310.505 180.005 306.895C174.594 298.874 173.816 291.734 163 289C165.559 283.519 170.689 277.423 168.257 271.001C162.991 257.098 146.491 261.696 136 264.113C131.901 265.057 127.422 265.181 124.228 268.279C120.737 271.665 120.572 276.563 121.795 281C122.397 283.183 123.839 285.535 122.901 287.83C121.873 290.347 118.901 292.173 117.039 294.039C110.731 300.364 97.796 309.131 98.214 319C98.422 323.917 99.9789 330.755 102.994 334.726C106.365 339.166 110.335 339.577 110 346Z" fill="#1B182E"/>
<path d="M379 326C383.797 326.321 387.424 328.928 392 330V320C398.279 318.732 401.101 313.605 406 310C403.984 312.359 402.812 314.024 402 317C406.885 314.734 410.527 313.05 416 313L415 309C420.224 308.034 424.77 308.775 430 309C428.703 310.594 428.465 311.018 428 313C433.381 313.115 437.114 315.05 442 317C440.639 312.266 437.598 310.367 433 309C435.465 305.759 436.539 301.792 438 298C441.337 303.631 444.001 309.271 447.019 314.91C448.196 317.112 450.46 318.6 451.112 321.09C451.885 324.044 451.008 327.934 451 331C453.939 329.233 459.014 327.365 460.972 324.502C463.309 321.085 462.133 313.789 461.331 310C458.568 296.952 450.396 286.43 439.741 278.6C436.776 276.422 433.301 277.757 430 276.836C426.504 275.862 423.778 273.288 420 273.163C415.619 273.018 412.061 276.045 408 277.211C403.561 278.484 398.157 276.85 394.043 279.028C391.169 280.549 389.866 283.537 387.625 285.721C384.218 289.043 378.433 289.045 376.608 294.019C374.96 298.512 378.632 301.771 378.977 306C379.517 312.611 378.136 319.166 379 326Z" fill="#D46F57"/>
<path d="M438 298L433 309C437.169 310.835 440.015 312.844 442 317C437.238 314.282 433.498 313.046 428 313C428.683 311.42 428.805 311.223 430 310C425.232 307.709 420.067 307.794 415 309L416 313C410.797 313.015 404.686 316.421 400 315C397.415 317.307 395.281 318.894 392 320V330C388.43 328.659 384.3 325.302 380.301 326.532C374.181 328.416 373.842 337.399 376.894 341.906C379.593 345.892 383.49 346.866 388 347C388.3 353.974 390.141 360.426 394.529 365.985C396.763 368.815 400.259 370.896 401.972 374.09C403.526 376.987 403 380.831 403 384C403.001 392.87 403.254 401.218 412.039 406.08C414.784 407.599 417.922 408.159 421 408.568C423.387 408.885 425.632 408.827 428 408.38C437.501 406.584 441.092 397.987 440.871 389C440.758 384.415 438.84 379.447 441.179 375.09C443.686 370.419 448.913 367.691 451.637 363C454.258 358.486 454.169 352.474 456.988 348.274C458.619 345.844 461.669 344.967 463.566 342.776C468.645 336.911 464.663 330.653 462 325C457.806 326.431 454.434 328.186 451 331C450.468 327.473 452.329 323.459 451.304 320.17C450.547 317.739 448.181 316.183 447.019 313.961C444.079 308.339 442.245 303.046 438 298Z" fill="#DEA58E"/>
<path d="M136 316L135 319L140 321V323C137.628 323.575 134.599 323.69 132.514 325.024C126.761 328.705 124.072 333.919 117 336C116.984 341.831 115.742 347.255 115 353C117.357 351.102 119.81 348.681 123.001 348.468C128.717 348.085 133.969 354.614 131.5 359.981C128.896 365.642 121.789 367.409 117.434 362.656C115.17 360.186 115.076 357.156 115 354C110.13 359.688 110.867 365.273 113 372C114.799 367.673 113 363.374 112 359C115.928 365.327 114.478 372.977 117.772 378.996C120.034 383.127 125.681 385.134 126.593 390.015C128.499 400.221 120.835 410.507 127.109 419.996C136.053 433.525 160.507 431.384 166.768 416C169.697 408.802 165.473 396.753 165 389C154.144 396.556 145.079 404.589 133.019 393.819C131.041 392.053 129.517 390.147 128 388C142.245 392.012 167.262 394.445 175 378C175.644 380.106 175.906 381.795 176 384C177.54 380.296 176.138 376.88 176.26 373C176.397 368.676 177.767 364.645 180 361L177 360C175.499 361.838 174.153 363.618 171.955 364.683C160.355 370.305 155.241 349.365 167.999 348.488C170.314 348.329 172.794 349.418 175 350C175.293 347.668 176.256 344.652 175.358 342.375C173.287 337.121 168.659 335.388 168 329C160.431 328.932 153.284 326.317 152 318C145.294 320.092 142.056 319.592 136 316Z" fill="#B98667"/>
<path d="M422 322C422.077 324.645 421.997 326.266 424 328C423.439 325.898 422.951 323.941 422 322Z" fill="#413340"/>
<path d="M410.667 323.333C410.222 323.778 411.278 323.722 411.333 323.667C411.778 323.222 410.722 323.278 410.667 323.333Z" fill="#806160"/>
<path d="M410 324C409.029 327.31 409.029 329.69 410 333H412C412.971 329.69 412.971 327.31 412 324H410Z" fill="#1B182E"/>
<path d="M431 324V333C435.371 331.463 434.921 328.019 434 324H431Z" fill="#1B182E"/>
<path d="M423.333 325.667C423.278 325.722 423.222 326.778 423.667 326.333C423.722 326.278 423.778 325.222 423.333 325.667Z" fill="#75585A"/>
<path d="M408 326V331C408.83 328.969 408.83 328.03 408 326Z" fill="#95706A"/>
<path d="M413 326V331C413.83 328.97 413.83 328.03 413 326Z" fill="#8B6965"/>
<path d="M430 326V331C430.83 328.97 430.83 328.03 430 326Z" fill="#423441"/>
<path d="M422 328V331C422.696 329.446 422.696 329.554 422 328Z" fill="#846461"/>
<path d="M423 328L424 337C425.231 333.845 424.57 330.954 423 328Z" fill="#1C182E"/>
<path d="M424.333 330.667C424.278 330.722 424.222 331.778 424.667 331.333C424.722 331.278 424.778 330.222 424.333 330.667Z" fill="#5D484F"/>
<path d="M129 332C130.223 333.195 130.42 333.316 132 334C130.777 332.805 130.58 332.684 129 332Z" fill="#594344"/>
<path d="M146 332V338C147.664 335.617 147.594 334.438 146 332Z" fill="#5C4545"/>
<path d="M246 333C244.385 338.412 244.016 344.355 244 350L240 335C236.617 339.466 238.613 344.808 238.907 350C239.098 353.378 238.421 356.667 238 360C234.51 357.483 232.299 354.616 230 351C222.562 360.83 238.464 371.892 237.815 382C236.467 403.005 233.858 424.044 231.83 445C230.917 454.44 229.151 463.451 230.174 473C231.252 483.068 235.201 492.74 239 502C237.814 500.814 237.472 500.416 237 499C235.567 502.674 236.963 506.311 238 510C234.084 504.247 234.9 499.443 233.621 493C232.674 488.227 230.293 483.794 229.376 479C228.333 473.552 229 467.531 229 462C226.459 466.159 225.682 471.348 224.28 476C222.199 482.907 219.507 489.569 216.244 496C214.371 499.69 209.923 504.643 210.647 509C211.368 513.343 215.811 517.647 218.424 521C222.061 525.665 225.812 530.728 231 533.772C240.955 539.615 255.961 537.49 263.671 528.907C273.172 518.329 271 499.237 271 486C271 459.99 269.525 434.631 264.739 409C262.661 397.869 257.748 387.07 255.992 376C255.154 370.711 257.869 365.023 259.29 360C261.182 353.315 261.999 346.929 262 340C259.567 342.435 258.612 344.618 258 348C256.54 343.382 256.771 338.032 254 334C252.27 339.11 251.232 344.606 251 350C249.234 344.415 249.468 337.867 246 333Z" fill="#B98667"/>
<path d="M410.667 333.333C410.222 333.778 411.278 333.722 411.333 333.667C411.778 333.222 410.722 333.278 410.667 333.333Z" fill="#9F776F"/>
<path d="M425 333V336C425.696 334.446 425.696 334.554 425 333Z" fill="#735759"/>
<path d="M131 334C132.842 337.311 132.987 340.259 133 344C139.515 341.838 136.772 334.921 131 334Z" fill="#1B182E"/>
<path d="M159 344L161 334C155.228 334.921 152.484 341.838 159 344Z" fill="#1B182E"/>
<path d="M103 356C103.181 354.462 103.226 354.366 104 353C102.955 349.175 103.996 347.338 106 344C103.553 344.309 102.166 344.805 100 346C103.305 342.145 105.709 342.893 110 345C108.973 331.532 92.404 340.993 98.174 351.941C99.323 354.121 100.908 354.968 103 356Z" fill="#B98667"/>
<path d="M132 337V342C132.83 339.97 132.83 339.03 132 337Z" fill="#43343C"/>
<path d="M137 337V342C137.83 339.97 137.83 339.03 137 337Z" fill="#8E6858"/>
<path d="M147 337C147.058 339.784 147.352 342.291 148 345C149.038 342.102 148.433 339.696 147 337Z" fill="#1B182E"/>
<path d="M419 337C420.248 337.685 420.548 337.749 422 338C420.752 337.315 420.452 337.251 419 337Z" fill="#463743"/>
<path d="M422.667 337.333C422.222 337.778 423.278 337.722 423.333 337.667C423.778 337.222 422.722 337.278 422.667 337.333Z" fill="#241E32"/>
<path d="M146 338V341C146.696 339.446 146.696 339.554 146 338Z" fill="#815F53"/>
<path d="M154 338V341C154.696 339.446 154.696 339.554 154 338Z" fill="#926B59"/>
<path d="M183 338L182 344C185.499 342.831 187.259 342.398 190 345C188.199 344.438 186.878 344.176 185 344C186.766 347.257 187.613 349.312 187 353C192.798 352.735 194.548 345.659 191.258 341.148C189.192 338.316 186.207 338.104 183 338Z" fill="#B98667"/>
<path d="M421.667 338.333C421.222 338.778 422.278 338.722 422.333 338.667C422.778 338.222 421.722 338.278 421.667 338.333Z" fill="#A87E73"/>
<path d="M148.333 339.667C148.278 339.722 148.222 340.778 148.667 340.333C148.722 340.278 148.778 339.222 148.333 339.667Z" fill="#6F524C"/>
<path d="M186 343C187.377 343.911 188.44 344.404 190 345C190 343.203 189.986 343.478 189 342L186 343Z" fill="#6B504B"/>
<path d="M134.667 344.333C134.222 344.778 135.278 344.722 135.333 344.667C135.778 344.222 134.722 344.278 134.667 344.333Z" fill="#684D4A"/>
<path d="M149 344C147.78 346.078 146.793 347.417 145 349C148.457 349.728 150.011 347.177 149 344Z" fill="#2D2434"/>
<path d="M156.667 344.333C156.222 344.778 157.278 344.722 157.333 344.667C157.778 344.222 156.722 344.278 156.667 344.333Z" fill="#46353D"/>
<path d="M415 345C418.9 353.091 426.256 351.367 431 345H415Z" fill="#FFFFFE"/>
<path d="M114 352C114.436 354.615 114.335 360.919 116 363C119.195 366.994 127.834 367.353 131 363C133.773 359.188 133.111 355.799 131 352C130.404 350.928 130.382 349.879 129 349C127.561 348.085 121.999 347.167 120 348C117.595 349.002 116.427 351.216 115 353L114 352Z" fill="#B07857"/>
<path d="M143 348C144.724 349.055 144.921 349.036 147 349C145.494 348.317 144.685 348.174 143 348Z" fill="#805E52"/>
<path d="M165.044 348.862C155.018 353.047 161.224 369.374 171.96 365.106C181.844 361.176 174.986 344.712 165.044 348.862Z" fill="#B07857"/>
<path d="M516 351C514.693 356.307 514.015 361.536 514 367C511.658 362.133 513.009 356.405 510 352C507.66 359.4 507.967 367.345 507 375C503.441 373.15 502.133 370.805 501 367C496.89 368.369 497.159 371.101 498.157 375C499.768 381.299 503.216 386.806 505 393H522C523.163 381.63 529.837 370.481 532 359C528.966 360.725 527.995 362.678 527 366C525.741 361.739 526 357.423 526 353C521.306 355.74 521.032 361.996 520 367C518.478 361.851 518.986 356.313 518 351H516Z" fill="#DEA58E"/>
<path d="M183 354L194 360L191 353C188.203 353.189 185.703 353.217 183 354Z" fill="#E5BB70"/>
<path d="M137 356C137.936 357.949 138.392 358.55 140 360C139.064 358.051 138.608 357.45 137 356Z" fill="#674C49"/>
<path d="M152 360C153.457 358.897 153.897 358.457 155 357C152.876 357.899 152.899 357.876 152 360Z" fill="#47363E"/>
<path d="M112 359C113.463 368.948 116.562 378.942 113.841 389C112.903 392.467 110.614 400.793 105.972 400.793C100.668 400.793 98.897 391.877 98 388C95.689 393.924 101.09 406.139 108.895 401.968C112.417 400.086 113.877 395.619 114.761 392C116.98 382.914 118.571 366.456 112 359Z" fill="#E4BB70"/>
<path d="M140 359C143.772 362.534 147.526 362.15 152 360L140 359Z" fill="#1B182E"/>
<path d="M178 362C176.196 371.718 175.513 384.464 178.443 394C179.767 398.31 182.566 403.703 187.988 402.638C197.563 400.758 197.003 384.182 197 377C196.999 373.683 197.604 370.276 195 368C196.133 376.964 196.127 385.366 192.906 394C191.897 396.704 189.757 401.677 186.029 400.654C182.563 399.704 180.929 394.988 179.866 392C176.301 381.976 178.638 372.111 180 362H178Z" fill="#E5BB70"/>
<path d="M144 365C145.506 365.683 146.315 365.826 148 366C146.494 365.317 145.685 365.174 144 365Z" fill="#624948"/>
<path d="M96 369V388C98.02 383.187 98.02 373.813 96 369Z" fill="#E5BB70"/>
<path d="M440 380L441 387L445 386C439.519 391.278 441.507 399.212 435.787 404.66C422.913 416.922 404.956 404.13 402 390L397 389C398.847 388.79 400.143 388.806 402 389V382C392.67 385.416 388.148 392.56 380.826 398.502C371.997 405.667 360.857 407.506 353.39 417.001C346.95 425.19 344.248 437.256 341 447C333.642 469.073 328.301 491.631 322 514H370L372 496H476L475 493C484.809 501.107 492.011 521.553 508 519.562C519.509 518.13 522.177 499.012 523.576 490C526.551 470.821 527 451.376 527 432C527 419.546 527.275 406.255 525 394C516.8 393.999 509.18 392.966 501 394C499.57 405.314 497.897 416.634 497 428C492.283 421.512 488.406 414.582 481.999 409.518C477.164 405.696 470.835 404.258 466.184 400.49C462.977 397.891 460.828 393.977 457.96 391.004C452.784 385.637 447.004 382.385 440 380Z" fill="#1B182E"/>
<path d="M128 388C135.873 404.837 155.7 401.091 165 388C159.297 388.768 153.781 390.707 148 390.961C141.012 391.267 134.76 389.395 128 388Z" fill="#B07857"/>
<path d="M723 394C723 401.061 724.056 409.091 722.471 416C720.82 423.195 716.532 430.43 713.247 437C707.457 448.582 701.511 460.085 696.427 472C689.084 489.21 684.949 508.391 683.17 527C681.75 541.845 682.623 556.189 682.985 571C684.054 614.614 688.967 657.664 694.155 701C696.478 720.406 701.597 740.492 702 760H799C799 720.668 800.242 681.255 801.961 642C802.93 619.853 800.966 597.043 803.171 575C805.66 550.107 814.031 525.946 816 501C817.813 507.309 816.136 515.549 815.08 522C813.539 531.415 811.917 540.717 809.626 550C807.786 557.457 805.207 565.286 805.015 573C804.632 588.395 805.61 603.679 805.985 619C807.136 665.956 809 713.05 809 760H906C906.154 741.367 910.971 722.535 912.831 704C916.98 662.638 921.22 621.509 923.04 580C924.83 539.159 923.37 499.56 908 461C901.606 444.964 892.844 429.442 887.595 413C885.871 407.599 887.955 398.212 883 395C880.544 399.454 876.683 398.998 872 399H762C748.717 399 734.313 401.602 723 394Z" fill="#DC8B42"/>
<path d="M736 416H862C867.782 416 881.468 418.374 880.793 409.019C880.474 404.598 876.633 404.073 873 404.005C864.34 403.842 855.662 404 847 404H743C739.698 404 735.306 403.304 732.228 404.742C727.636 406.888 729.026 416.638 727.424 421C721.274 437.738 715.022 454.743 710.522 472C706.449 487.621 700.727 502.952 698.428 519C697.853 523.013 696.241 532.883 699.603 535.911C701.507 537.625 704.576 537.845 707 537.96C710.064 538.105 714.065 538.373 716.567 536.258C721.006 532.506 720.935 521.411 721.999 516C728.388 483.53 736 449.175 736 416Z" fill="#1B182E"/>
<path d="M35 476C43.659 484.325 50.073 493.795 60 501.116C62.655 503.073 67.273 507.75 70.91 506.669C73.421 505.923 75.142 502.951 76.626 500.999C79.704 496.951 82.671 492.847 86 489C90.529 506.507 91.022 525.154 93.579 543C94.411 548.8 94.87 559.081 99.51 563.272C103.722 567.077 112.63 567.262 118 568C135.416 570.392 153.617 569.235 171 567.155C176.95 566.443 188.971 566.731 193.005 561.697C196.882 556.859 197.051 548.874 197.87 543C199.8 529.151 201.884 514.999 202 501L208 509C217.641 499.516 222.069 484.681 225.709 472C226.977 467.583 229.565 461.631 228.941 457C228.455 453.401 225.824 450.035 224 447C219.579 439.643 214.629 429.013 207.816 423.652C204.28 420.87 199.236 420.06 195 418.86C186.084 416.332 177.079 413.874 168 412C160.058 433.365 130.834 435.224 124 412C111.504 413.615 96.204 416.365 85 422.323C72.424 429.012 62.586 439.665 53.086 450C46.68 456.968 36.583 466.354 35 476Z" fill="#E4D3C5"/>
<path d="M112 465V516H180V465H112Z" fill="#DC8B42"/>
<path d="M79.0001 610C74.4971 618.447 71.0271 627.36 71.0001 637C74.0031 635.032 75.0151 632.402 76.0001 629C77.5211 634.146 77.0001 639.66 77.0001 645C80.6451 640.483 81.4551 634.485 83.0001 629C84.6611 634.62 82.9081 640.838 86.0001 646C88.1371 640.943 88.8871 635.474 89.0001 630C91.4241 634.542 91.3581 639.918 92.0001 645C96.6251 638.989 95.1091 628.308 97.0001 621C100.228 623.535 101.833 626.069 103 630C111.218 625.424 102.117 609.699 98.4531 604C87.9091 587.599 74.8191 572.59 63.1271 557C59.1851 551.745 51.2051 544.48 49.7331 538C49.0421 534.958 51.3771 532.316 53.0021 530C56.5621 524.923 60.424 520.066 63.999 515C65.457 512.935 68.2961 509.962 67.5421 507.184C66.4541 503.173 59.0801 499.784 56.0001 497.334C48.7461 491.564 41.1671 484.364 37.0001 476C29.1711 479.976 23.6061 490.965 18.5791 498C10.6156 509.143 -0.593349 521.551 0.0394511 536C0.620551 549.272 10.6922 558.076 20.0001 566.286C37.9251 582.095 56.7061 600.394 79.0001 610Z" fill="#B98667"/>
<path d="M372 497L371 520C370.115 517.9 369.965 517.26 370 515H336C332.49 515 325.66 513.709 322.738 516.028C320.47 517.828 320.245 522.372 319.65 525C317.72 533.526 315.376 542.237 315 551H348C351.388 551 357.549 552.153 360.411 549.972C362.546 548.346 362.801 544.422 363.35 542C364.99 534.759 367.011 527.348 368 520C370.172 524.539 369.382 528.147 369 533H481C480.047 520.932 476.953 509.055 476 497H372Z" fill="#E4D3C5"/>
<path d="M369 534C367.593 551.823 363.695 568.717 359.373 586C358.318 590.219 353.415 600.498 356.067 604.436C357.824 607.044 362.269 606.82 365 607.075C372.286 607.756 379.679 608.909 387 608.996C412.912 609.304 438.295 611.057 464 605.999C470.679 604.685 484.735 603.406 488.972 597.362C490.775 594.791 489.812 590.852 489.424 588C488.605 581.981 487.589 576.013 486.729 570C485.585 561.993 484.257 554.01 483.13 546C482.703 542.963 482.842 538.091 480.825 535.603C478.441 532.664 471.342 534 468 534H440C435.75 534 430.316 533.106 426.213 534.318C422.391 535.447 420.505 540.9 418.575 544C413.492 552.165 407.731 560.123 401 567C408.378 556.2 417.769 546.125 423 534H369Z" fill="#1B182E"/>
<path d="M317 649C324.859 649 336.368 650.148 342.686 644.351C347.857 639.607 347.38 626.581 348.611 620C352.823 597.483 358.114 574.713 361 552H328C324.672 552 318.385 550.825 315.603 553.028C313.613 554.604 314.075 557.772 313.961 560C313.671 565.711 313 571.251 313 577C313 589.976 312.941 603.091 314.17 616C315.208 626.907 316.97 638.036 317 649Z" fill="#1B182E"/>
<path d="M103 630C102.201 625.872 100.731 623.048 97.0001 621C95.5521 628.802 94.6249 637.083 93.9999 645C90.6029 641.711 90.1979 637.606 89.9999 633C88.2239 636.956 87.8289 641.725 86.9999 646H84.9999C83.6719 641.273 83.0139 636.912 82.9999 632C76.6169 643.36 77.9999 657.446 77.9999 670C77.9999 699.758 80.4799 730.705 85.9999 760H151C148.993 749.191 149.659 737.937 148.91 727C147.705 709.402 146 691.657 146 674C150.107 684.947 151.631 697.545 154.003 709C157.529 726.029 161.689 742.925 165 760H232C229.194 744.883 228.595 729.26 226.715 714C222.031 675.981 218.597 636.68 206.971 600C204.671 592.742 201.17 586.034 198.352 579C196.221 573.682 196.742 568.231 194 563C181.624 566.957 168.842 567.943 156 569.17C146.203 570.106 135.816 570.88 126 569.576C118.894 568.631 111.95 567.67 105 565.85C102.058 565.079 98.939 563.942 96.434 566.358C93.787 568.91 94.298 572.753 93.363 576C92.151 580.214 88.566 584.484 88.682 589C88.856 595.736 97.937 603.188 101.1 609C104.125 614.561 110.124 625.824 103 630Z" fill="#123C67"/>
<path d="M992 590C986.76 591.658 981.48 591.998 976 592C973.18 592.001 969.09 591.308 966.64 593.028C963.96 594.909 963.04 599.07 962.12 602C959.96 608.875 958.02 615.747 958 623C957.99 627.807 957.92 631.459 963 633C964.36 627.114 966.14 621.819 971 618C974.03 625.853 975.45 633.801 977.21 642C978.18 646.517 978.87 651.484 983 654V630C986.29 636.555 986.35 651.341 994 654V630C997.77 636.621 999.21 646.847 1006 651C1006 643.289 1005.41 635.59 1004 628C1007.26 632.481 1009.38 637.39 1015 639C1014.25 630.37 1010.06 622.625 1006.25 615C1002.03 606.559 997.65 597.578 992 590Z" fill="#C88C74"/>
<path d="M489 598C462.673 612.968 426.103 611.314 397 610.039C383.053 609.429 368.645 609.361 355 606C347.573 625.796 349 647.273 349 668V760H412C413.63 722.031 420.996 684.024 421 646H423C423.004 684.047 430.895 721.969 431 760H496C496 719.541 499.107 678.317 494.286 638C493.169 628.665 492.698 619.326 491.425 610C490.852 605.797 491.23 601.723 489 598Z" fill="#E5BB70"/>
<path d="M320 650C316.792 661.223 309.255 671.008 309 683C312.034 681.275 313.005 679.322 314 676C315.347 680.558 315 685.27 315 690C318.848 686.022 319.901 680.309 321 675C322.556 680.263 321.444 685.737 323 691C325.937 687.627 326.437 683.358 327 679L330 690C333.703 684.581 333.486 674.507 334 668C337.728 669.837 339.173 672.337 341 676H343C346.036 665.631 338.007 657.835 337 648C331.298 648.724 325.772 649.952 320 650Z" fill="#DEA58E"/>
</svg>
